<svg version="1.2" xmlns="http://www.w3.org/2000/svg" viewBox="0 0 21 18" width="21" height="18">
	<title>Soldes-svg</title>
	<style>
		.s0 { fill: #858585 } 
	</style>
	<path fill-rule="evenodd" class="s0" d="m4.2 14.6c-2.3 0-4.2-1.2-4.2-2.8 0-0.5-0.1-0.2 2.8-6.4 0.6-1.2 2.2-1.2 2.8 0 2.8 6.1 2.8 5.8 2.8 6.4 0 1.6-1.9 2.8-4.2 2.8zm-2.4-3.3h4.8l-2.4-5.1zm19.2 0.5c0 1.6-1.9 2.9-4.2 2.9-2.4 0-4.2-1.3-4.2-2.9 0-0.5-0.1-0.2 2.8-6.3 0.5-1.3 2.2-1.3 2.8 0 2.8 6 2.8 5.8 2.8 6.3zm-1.9-0.5l-2.3-5.1-2.4 5.1zm-1.3 5v1.2c0 0.3-0.2 0.5-0.5 0.5h-13.7c-0.3 0-0.5-0.2-0.5-0.5v-1.2c0-0.3 0.2-0.5 0.5-0.5h5.8v-10.4c-0.8-0.3-1.4-1.1-1.5-2h-4.3c-0.3 0-0.5-0.2-0.5-0.6v-1.1c0-0.3 0.2-0.5 0.5-0.5h4.7c0.5-0.7 1.3-1.2 2.1-1.2 0.9 0 1.6 0.5 2.1 1.2h4.8c0.3 0 0.5 0.2 0.5 0.5v1.1c0 0.4-0.2 0.6-0.5 0.6h-4.3c-0.2 0.9-0.7 1.7-1.5 2v10.4h5.8c0.3 0 0.5 0.2 0.5 0.5z"/>
</svg>